<svg width="23" height="22" viewBox="0 0 23 22" fill="none" xmlns="http://www.w3.org/2000/svg">
<path d="M11.5992 0.5C5.51086 0.5 0.574219 5.20156 0.574219 11C0.574219 16.7984 5.51086 21.5 11.5992 21.5C17.6876 21.5 22.6242 16.7984 22.6242 11C22.6242 5.20156 17.6876 0.5 11.5992 0.5ZM11.5992 19.7188C6.54445 19.7188 2.44453 15.8141 2.44453 11C2.44453 6.18594 6.54445 2.28125 11.5992 2.28125C16.654 2.28125 20.7539 6.18594 20.7539 11C20.7539 15.8141 16.654 19.7188 11.5992 19.7188ZM11.737 7.23359C13.0413 7.23359 13.9273 8.02578 14.0257 9.18828C14.0331 9.28672 14.1192 9.36172 14.2226 9.36172H15.6179C15.6819 9.36172 15.7336 9.3125 15.7336 9.25156C15.7336 7.21953 14.0503 5.79688 11.7296 5.79688C9.02508 5.79688 7.46484 7.53594 7.46484 10.4094V11.6352C7.46484 14.4875 9.02508 16.2031 11.7296 16.2031C14.0429 16.2031 15.7336 14.825 15.7336 12.8891C15.7336 12.8281 15.6819 12.7789 15.6179 12.7789H14.2201C14.1168 12.7789 14.0331 12.8539 14.0232 12.95C13.9199 14.0305 13.0364 14.7734 11.7346 14.7734C10.1276 14.7734 9.22195 13.6508 9.22195 11.6422V10.4094C9.22441 8.37031 10.1325 7.23359 11.737 7.23359Z" fill="black"/>
</svg>
