<svg width="27" height="27" viewBox="0 0 27 27" fill="none" xmlns="http://www.w3.org/2000/svg">
<path d="M6.0089 22.3847C8.90468 22.3847 11.2522 20.0428 11.2522 17.1539C11.2522 14.2651 8.90468 11.9231 6.0089 11.9231C3.11312 11.9231 0.765625 14.2651 0.765625 17.1539C0.765625 20.0428 3.11312 22.3847 6.0089 22.3847Z" fill="#0E2C55"/>
<path d="M18.4626 26.3078C20.2725 26.3078 21.7396 24.8441 21.7396 23.0386C21.7396 21.233 20.2725 19.7693 18.4626 19.7693C16.6527 19.7693 15.1855 21.233 15.1855 23.0386C15.1855 24.8441 16.6527 26.3078 18.4626 26.3078Z" fill="#0E2C55"/>
<path d="M19.1169 15.8462C23.4605 15.8462 26.9818 12.3334 26.9818 8.00004C26.9818 3.6667 23.4605 0.153839 19.1169 0.153839C14.7732 0.153839 11.252 3.6667 11.252 8.00004C11.252 12.3334 14.7732 15.8462 19.1169 15.8462Z" fill="#0E2C55"/>
</svg>
