<svg width="28" height="27" viewBox="0 0 28 27" fill="none" xmlns="http://www.w3.org/2000/svg">
<path d="M3.93128 5.52223L5.6115 3.762L7.74454 6.00911L6.06432 7.76934L3.93128 5.52223ZM12.809 0.641014H15.1923V4.32378H12.809V0.641014ZM4.46752 15.5593H0.892578V13.0625H4.46752V15.5593ZM17.5756 20.7901V26.7949H10.4257V20.7901C8.2927 19.4918 6.85081 17.0824 6.85081 14.3109C6.85081 10.1787 10.0563 6.82056 14.0007 6.82056C17.945 6.82056 21.1506 10.1787 21.1506 14.3109C21.1506 17.0824 19.7087 19.4918 17.5756 20.7901ZM23.5339 15.5593V13.0625H27.1088V15.5593H23.5339ZM20.2449 5.99662L22.378 3.74952L24.0582 5.50975L21.9132 7.74437L20.2449 5.99662Z" fill="#0E2C55"/>
</svg>
