<svg width="43" height="40" viewBox="0 0 43 40" fill="none" xmlns="http://www.w3.org/2000/svg">
<ellipse cx="21.1016" cy="20" rx="21" ry="20" fill="#6190EA"/>
<path d="M21.6282 16.1414C19.0955 16.1414 17.0527 18.0874 17.0527 20.5C17.0527 22.9126 19.0955 24.8586 21.6282 24.8586C24.1608 24.8586 26.2037 22.9126 26.2037 20.5C26.2037 18.0874 24.1608 16.1414 21.6282 16.1414ZM21.6282 23.3336C19.9915 23.3336 18.6535 22.0629 18.6535 20.5C18.6535 18.9371 19.9875 17.6664 21.6282 17.6664C23.2688 17.6664 24.6028 18.9371 24.6028 20.5C24.6028 22.0629 23.2648 23.3336 21.6282 23.3336ZM27.458 15.9631C27.458 16.5283 26.9802 16.9798 26.3908 16.9798C25.7975 16.9798 25.3236 16.5245 25.3236 15.9631C25.3236 15.4017 25.8015 14.9465 26.3908 14.9465C26.9802 14.9465 27.458 15.4017 27.458 15.9631ZM30.4885 16.9949C30.4208 15.6331 30.0942 14.4268 29.0469 13.4329C28.0036 12.4391 26.7373 12.128 25.3077 12.0597C23.8343 11.9801 19.4181 11.9801 17.9447 12.0597C16.5191 12.1242 15.2527 12.4353 14.2054 13.4292C13.1581 14.423 12.8356 15.6293 12.7639 16.9911C12.6803 18.3947 12.6803 22.6015 12.7639 24.0051C12.8316 25.3669 13.1581 26.5732 14.2054 27.5671C15.2527 28.5609 16.5151 28.872 17.9447 28.9403C19.4181 29.0199 23.8343 29.0199 25.3077 28.9403C26.7373 28.8758 28.0036 28.5647 29.0469 27.5671C30.0902 26.5732 30.4168 25.3669 30.4885 24.0051C30.5721 22.6015 30.5721 18.3985 30.4885 16.9949ZM28.585 25.511C28.2744 26.2545 27.6731 26.8273 26.8886 27.127C25.7139 27.5708 22.9263 27.4684 21.6282 27.4684C20.33 27.4684 17.5385 27.5671 16.3677 27.127C15.5872 26.8311 14.9859 26.2583 14.6713 25.511C14.2054 24.392 14.3129 21.7366 14.3129 20.5C14.3129 19.2634 14.2094 16.6042 14.6713 15.489C14.982 14.7455 15.5833 14.1727 16.3677 13.873C17.5425 13.4292 20.33 13.5316 21.6282 13.5316C22.9263 13.5316 25.7178 13.4329 26.8886 13.873C27.6691 14.1689 28.2704 14.7417 28.585 15.489C29.0509 16.608 28.9434 19.2634 28.9434 20.5C28.9434 21.7366 29.0509 24.3958 28.585 25.511Z" fill="white"/>
</svg>
