<svg width="43" height="40" viewBox="0 0 43 40" fill="none" xmlns="http://www.w3.org/2000/svg">
<ellipse cx="21.5527" cy="20" rx="21" ry="20" fill="#6190EA"/>
<path d="M17.7286 27H14.4633V16.9853H17.7286V27ZM16.0942 15.6192C15.05 15.6192 14.2031 14.7955 14.2031 13.801C14.2031 13.3234 14.4024 12.8653 14.757 12.5275C15.1116 12.1898 15.5926 12 16.0942 12C16.5957 12 17.0767 12.1898 17.4314 12.5275C17.786 12.8653 17.9852 13.3234 17.9852 13.801C17.9852 14.7955 17.138 15.6192 16.0942 15.6192ZM29.9496 27H26.6913V22.1249C26.6913 20.963 26.6667 19.473 24.9936 19.473C23.2959 19.473 23.0358 20.7354 23.0358 22.0412V27H19.774V16.9853H22.9057V18.3514H22.9514C23.3873 17.5645 24.4522 16.7341 26.0409 16.7341C29.3456 16.7341 29.9531 18.8067 29.9531 21.4988V27H29.9496Z" fill="white"/>
</svg>
