<svg width="51" height="48" viewBox="0 0 51 48" fill="none" xmlns="http://www.w3.org/2000/svg">
<g filter="url(#filter0_d_1615_179)">
<ellipse cx="25.6523" cy="20" rx="21" ry="20" fill="#6190EA"/>
<path d="M33.1604 16.2367C33.1724 16.4226 33.1724 16.6086 33.1724 16.7945C33.1724 22.4656 29.2749 29 22.1514 29C19.9567 29 17.918 28.2961 16.2031 27.0742C16.5149 27.1141 16.8147 27.1273 17.1385 27.1273C18.9494 27.1273 20.6163 26.45 21.9475 25.2946C20.2446 25.2547 18.8175 24.0195 18.3258 22.3195C18.5656 22.3593 18.8055 22.3859 19.0573 22.3859C19.4051 22.3859 19.7529 22.3328 20.0767 22.2399C18.3018 21.8414 16.9706 20.1148 16.9706 18.0297V17.9766C17.4863 18.2953 18.0859 18.4945 18.7215 18.5211C17.6781 17.7507 16.9946 16.4359 16.9946 14.9484C16.9946 14.1515 17.1864 13.4211 17.5223 12.7836C19.4291 15.3867 22.2953 17.0867 25.5092 17.2726C25.4492 16.9539 25.4133 16.6219 25.4133 16.2898C25.4133 13.9258 27.1402 12 29.2868 12C30.4021 12 31.4095 12.518 32.117 13.3547C32.9924 13.1688 33.8319 12.8101 34.5755 12.3188C34.2876 13.3149 33.676 14.1516 32.8725 14.6828C33.6521 14.5899 34.4076 14.3508 35.1031 14.0188C34.5755 14.8687 33.9159 15.6257 33.1604 16.2367Z" fill="white"/>
</g>
<defs>
<filter id="filter0_d_1615_179" x="0.652344" y="0" width="50" height="48" filterUnits="userSpaceOnUse" color-interpolation-filters="sRGB">
<feFlood flood-opacity="0" result="BackgroundImageFix"/>
<feColorMatrix in="SourceAlpha" type="matrix" values="0 0 0 0 0 0 0 0 0 0 0 0 0 0 0 0 0 0 127 0" result="hardAlpha"/>
<feOffset dy="4"/>
<feGaussianBlur stdDeviation="2"/>
<feComposite in2="hardAlpha" operator="out"/>
<feColorMatrix type="matrix" values="0 0 0 0 0 0 0 0 0 0 0 0 0 0 0 0 0 0 0.25 0"/>
<feBlend mode="normal" in2="BackgroundImageFix" result="effect1_dropShadow_1615_179"/>
<feBlend mode="normal" in="SourceGraphic" in2="effect1_dropShadow_1615_179" result="shape"/>
</filter>
</defs>
</svg>
