<svg width="42" height="40" viewBox="0 0 42 40" fill="none" xmlns="http://www.w3.org/2000/svg">
<ellipse cx="21" cy="20" rx="21" ry="20" fill="#6190EA"/>
<path d="M27.7761 14.4703C26.1066 12.8766 23.8834 12 21.5206 12C16.6438 12 12.6753 15.7795 12.6753 20.4241C12.6753 21.9078 13.0817 23.3574 13.8547 24.6362L12.5996 29L17.2892 27.8275C18.5802 28.4991 20.0345 28.852 21.5166 28.852H21.5206C26.3935 28.852 30.4496 25.0725 30.4496 20.4279C30.4496 18.1777 29.4455 16.0641 27.7761 14.4703ZM21.5206 27.4328C20.1978 27.4328 18.9029 27.0951 17.7753 26.4576L17.5084 26.3058L14.7273 27.0002L15.4684 24.4161L15.293 24.1504C14.5559 23.0348 14.1695 21.7484 14.1695 20.4241C14.1695 16.565 17.4685 13.423 21.5246 13.423C23.4889 13.423 25.3337 14.1516 26.7202 15.4759C28.1068 16.8002 28.9595 18.5571 28.9555 20.4279C28.9555 24.2908 25.5727 27.4328 21.5206 27.4328ZM25.5528 22.1886C25.3337 22.0824 24.2459 21.5739 24.0427 21.5056C23.8395 21.4335 23.6921 21.3993 23.5447 21.6118C23.3973 21.8243 22.9749 22.2949 22.8434 22.4391C22.7159 22.5795 22.5845 22.5984 22.3653 22.4922C21.0664 21.8737 20.2138 21.3879 19.3571 19.9877C19.13 19.6158 19.5842 19.6424 20.0066 18.8379C20.0783 18.6975 20.0424 18.5761 19.9866 18.4699C19.9309 18.3636 19.4886 17.3277 19.3053 16.9065C19.126 16.4967 18.9427 16.5536 18.8073 16.546C18.6798 16.5384 18.5323 16.5384 18.3849 16.5384C18.2375 16.5384 17.9984 16.5915 17.7952 16.8002C17.592 17.0127 17.0223 17.5212 17.0223 18.5571C17.0223 19.5931 17.8152 20.5949 17.9227 20.7353C18.0343 20.8757 19.4806 23.0007 21.6999 23.9152C23.1024 24.492 23.6523 24.5413 24.3535 24.4426C24.7798 24.3819 25.6604 23.9342 25.8437 23.4408C26.027 22.9475 26.027 22.5263 25.9712 22.4391C25.9194 22.3442 25.772 22.2911 25.5528 22.1886Z" fill="white"/>
</svg>
